<svg xmlns="http://www.w3.org/2000/svg" viewBox="0 0 105 105"><title>Asset 8</title><g id="Layer_2" data-name="Layer 2"><g id="Layer_2-2" data-name="Layer 2"><path d="M52.5,102A49.5,49.5,0,1,1,102,52.5,49.56,49.56,0,0,1,52.5,102Zm0-98A48.5,48.5,0,1,0,101,52.5,48.55,48.55,0,0,0,52.5,4ZM71.94,73.68a4.94,4.94,0,0,1-2-.43l-2.43-1.08a5,5,0,0,1-2.54-6.6l2.51-5.63a5,5,0,0,1,2.78-2.63A4.87,4.87,0,0,1,73,57.08a21.5,21.5,0,1,0-42.2-5.74,19.63,19.63,0,0,0,.89,5.79,5,5,0,0,1,5.81,2.79L40,65.56a5,5,0,0,1-2.54,6.6L35,73.24a5,5,0,0,1-2,.43,5,5,0,0,1-4.58-3l-2.51-5.64A5,5,0,0,1,28,58.71a23.68,23.68,0,0,1-1.21-7.37,25.5,25.5,0,1,1,49.93,7.26A5,5,0,0,1,79,65.07l-2.51,5.63a5,5,0,0,1-2.78,2.63A5,5,0,0,1,71.94,73.68ZM72,58a3.86,3.86,0,0,0-1.39.26,4,4,0,0,0-2.22,2.1L65.86,66a4,4,0,0,0,2,5.28l2.44,1.08a4,4,0,0,0,5.28-2l2.51-5.63a4,4,0,0,0-2-5.28l-.55-.25.13-.43a24.5,24.5,0,1,0-47.85-7.37,22.78,22.78,0,0,0,1.29,7.46l.15.43-.41.19a4,4,0,0,0-2,5.26l2.51,5.64A4,4,0,0,0,33,72.67a4,4,0,0,0,1.62-.35l2.44-1.08a4,4,0,0,0,2-5.28L36.6,60.33a4,4,0,0,0-2.22-2.1,3.91,3.91,0,0,0-2.82,0l-.49.18-.16-.49a20.76,20.76,0,0,1-1.09-6.58,22.5,22.5,0,1,1,44,6.49l-.15.48-.48-.15A4.1,4.1,0,0,0,72,58Z"/><path d="M52.5,105A52.5,52.5,0,1,1,105,52.5,52.56,52.56,0,0,1,52.5,105Zm0-99A46.5,46.5,0,1,0,99,52.5,46.55,46.55,0,0,0,52.5,6Z"/><path d="M76.28,58.93l-.14-.06a25,25,0,1,0-48.82-7.53A23.31,23.31,0,0,0,28.64,59a4.5,4.5,0,0,0-2.24,5.91l2.51,5.64a4.5,4.5,0,0,0,5.94,2.28l2.44-1.08a4.51,4.51,0,0,0,2.28-5.94l-2.51-5.63a4.48,4.48,0,0,0-5.67-2.37,20.19,20.19,0,0,1-1.07-6.42,22,22,0,1,1,43,6.35,4.47,4.47,0,0,0-5.45,2.45L65.4,65.76h0a4.51,4.51,0,0,0,2.28,5.94l2.44,1.08a4.46,4.46,0,0,0,1.82.39,4.53,4.53,0,0,0,1.62-.3,4.47,4.47,0,0,0,2.5-2.37l2.51-5.63a4.51,4.51,0,0,0-2.28-5.94Z"/><path d="M71.94,75.68a6.92,6.92,0,0,1-2.84-.61L66.67,74a7,7,0,0,1-3.55-9.24l2.51-5.64a7,7,0,0,1,3.89-3.69A6.88,6.88,0,0,1,71.46,55a19.09,19.09,0,0,0,.36-3.67,19.5,19.5,0,1,0-39,0A17.28,17.28,0,0,0,33.21,55a7,7,0,0,1,6.13,4.14l2.51,5.63A7,7,0,0,1,38.3,74l-2.44,1.08a6.92,6.92,0,0,1-2.84.6,7,7,0,0,1-6.4-4.15l-2.51-5.64A7,7,0,0,1,25.71,58a25.29,25.29,0,0,1-.9-6.62A27.5,27.5,0,1,1,79,57.75a7,7,0,0,1,1.81,8.13l-2.51,5.63a7,7,0,0,1-3.89,3.69A7,7,0,0,1,71.94,75.68ZM72,60a1.85,1.85,0,0,0-.67.12,2,2,0,0,0-1.12,1.05l-2.51,5.63a2,2,0,0,0,1,2.64l2.44,1.08a2,2,0,0,0,2.64-1l2.51-5.63a2,2,0,0,0-1-2.64h0l-2.18-1v0l-.48-.15A2.11,2.11,0,0,0,72,60Zm-40.36.37-1.94.89a2,2,0,0,0-1,2.63l2.5,5.63a2,2,0,0,0,2.64,1l2.44-1.08a2,2,0,0,0,1-2.64l-2.51-5.64a2,2,0,0,0-2.52-1Z"/></g></g></svg>