<svg xmlns="http://www.w3.org/2000/svg" viewBox="0 0 105 105"><defs><style>.cls-1{fill:none;}.cls-2{fill:#fff;}</style></defs><title>Asset 4</title><g id="Layer_2" data-name="Layer 2"><g id="Layer_2-2" data-name="Layer 2"><path class="cls-1" d="M101.5,52.5a49,49,0,1,0-49,49A49.06,49.06,0,0,0,101.5,52.5ZM52.88,82.7a30,30,0,1,1,30-30A30,30,0,0,1,52.88,82.7Z"/><path d="M52.5,2.5a50,50,0,1,0,50,50A50,50,0,0,0,52.5,2.5Zm-49,50a49,49,0,1,1,49,49A49.06,49.06,0,0,1,3.5,52.5Z"/><path d="M52.5,105A52.5,52.5,0,1,1,105,52.5,52.56,52.56,0,0,1,52.5,105Zm0-99A46.5,46.5,0,1,0,99,52.5,46.55,46.55,0,0,0,52.5,6Z"/><path d="M52.88,22.7a30,30,0,1,0,30,30A30,30,0,0,0,52.88,22.7Zm8.5,30a8.5,8.5,0,1,1-8.5-8.5A8.51,8.51,0,0,1,61.38,52.7Z"/><path class="cls-2" d="M52.88,61.7a9,9,0,1,1,9-9A9,9,0,0,1,52.88,61.7Zm0-17a8,8,0,1,0,8,8A8,8,0,0,0,52.88,44.7Z"/></g></g></svg>