<svg xmlns="http://www.w3.org/2000/svg" viewBox="0 0 105 105"><defs><style>.cls-1{fill:none;}</style></defs><title>Asset 1</title><g id="Layer_2" data-name="Layer 2"><g id="Layer_2-2" data-name="Layer 2"><path class="cls-1" d="M52.5,3.5a49,49,0,1,0,49,49A49.06,49.06,0,0,0,52.5,3.5Zm-21,79.95v-60l52,30Z"/><path d="M52.5,2.5a50,50,0,1,0,50,50A50,50,0,0,0,52.5,2.5Zm0,99a49,49,0,1,1,49-49A49.06,49.06,0,0,1,52.5,101.5Z"/><path d="M52.5,105A52.5,52.5,0,1,1,105,52.5,52.56,52.56,0,0,1,52.5,105Zm0-99A46.5,46.5,0,1,0,99,52.5,46.55,46.55,0,0,0,52.5,6Z"/><polygon class="cls-1" points="34.5 28.64 34.5 78.25 77.46 53.45 34.5 28.64"/><path d="M30.5,83.45l52-30-52-30Zm3-54.8,43,24.8-43,24.8Z"/><path d="M28.5,87.78V19.12L88,53.45Zm8-54.8V73.92L72,53.45Z"/></g></g></svg>