<svg xmlns="http://www.w3.org/2000/svg" viewBox="0 0 105 105"><defs><style>.cls-1{fill:none;}</style></defs><title>Asset 7</title><g id="Layer_2" data-name="Layer 2"><g id="Layer_2-2" data-name="Layer 2"><path class="cls-1" d="M101.5,52.5a49,49,0,1,0-49,49A49.06,49.06,0,0,0,101.5,52.5ZM30.78,74.65a5.5,5.5,0,1,1,5.5-5.5A5.51,5.51,0,0,1,30.78,74.65Zm0-11.92a5.5,5.5,0,1,1,5.5-5.5A5.51,5.51,0,0,1,30.78,62.73Zm0-11.67a5.5,5.5,0,1,1,5.5-5.5A5.51,5.51,0,0,1,30.78,51.06Zm0-11.85a5.5,5.5,0,1,1,5.5-5.5A5.51,5.51,0,0,1,30.78,39.21ZM81,70.42H41v-3H81Zm0-12H41v-3H81Zm0-11H41v-3H81Zm0-12H41v-3H81Z"/><path d="M52.5,2.5a50,50,0,1,0,50,50A50,50,0,0,0,52.5,2.5Zm-49,50a49,49,0,1,1,49,49A49.06,49.06,0,0,1,3.5,52.5Z"/><path d="M52.5,105A52.5,52.5,0,1,1,105,52.5,52.56,52.56,0,0,1,52.5,105Zm0-99A46.5,46.5,0,1,0,99,52.5,46.55,46.55,0,0,0,52.5,6Z"/><rect x="40.03" y="33.42" width="40" height="3"/><rect x="38.03" y="30.42" width="45" height="8"/><rect x="40.03" y="45.42" width="40" height="3"/><rect x="38.03" y="42.42" width="45" height="8"/><rect x="40.03" y="56.42" width="40" height="3"/><rect x="38.03" y="53.42" width="45" height="8"/><rect x="40.03" y="68.42" width="40" height="3"/><rect x="38.03" y="65.42" width="45" height="8"/><circle cx="30.78" cy="33.71" r="5.5"/><circle cx="30.78" cy="45.56" r="5.5"/><circle cx="30.78" cy="57.23" r="5.5"/><circle cx="30.78" cy="69.15" r="5.5"/></g></g></svg>