<svg xmlns="http://www.w3.org/2000/svg" viewBox="0 0 105 105"><defs><style>.cls-1{fill:none;}.cls-2{fill:#fff;}</style></defs><title>Asset 3</title><g id="Layer_2" data-name="Layer 2"><g id="Layer_2-2" data-name="Layer 2"><path class="cls-1" d="M52.5,3.5a49,49,0,1,0,49,49A49.06,49.06,0,0,0,52.5,3.5ZM47.62,80.65,32.32,66.16H21.06v-26h10.7L48.22,23.39ZM82.85,63.08,80.73,65.2,69.29,53.76,57.85,65.2l-2.12-2.12L67.17,51.64,55.73,40.2l2.12-2.12L69.29,49.52,80.73,38.08l2.12,2.12L71.41,51.64Z"/><path d="M52.5,2.5a50,50,0,1,0,50,50A50,50,0,0,0,52.5,2.5Zm0,99a49,49,0,1,1,49-49A49.06,49.06,0,0,1,52.5,101.5Z"/><path d="M52.5,105A52.5,52.5,0,1,1,105,52.5,52.56,52.56,0,0,1,52.5,105Zm0-99A46.5,46.5,0,1,0,99,52.5,46.55,46.55,0,0,0,52.5,6Z"/><rect class="cls-2" x="24.06" y="43.16" width="7" height="20"/><path d="M20.06,41.16v26H32.32l15.3,14,.59-57-16.45,17Zm3,3h7v20h-7ZM44,73.47l-10.9-9.63V41.45L44,30.72Z"/><path d="M50.06,86.58,31.34,69.16H18.06v-31H30.71L50.78,17.54Zm-14-23.85,5.67,5.13.12-31.12-5.79,5.74Zm-10-1.58h2v-15h-2Z"/><polygon class="cls-1" points="34.06 41.45 34.06 63.85 44.46 73.47 44.75 30.72 34.06 41.45"/><polygon points="80.73 38.08 69.29 49.52 57.85 38.08 55.73 40.2 67.17 51.64 55.73 63.08 57.85 65.2 69.29 53.76 80.73 65.2 82.85 63.08 71.41 51.64 82.85 40.2 80.73 38.08"/><polygon points="80.73 68.73 69.29 57.29 57.85 68.73 52.19 63.08 63.63 51.64 52.19 40.2 57.85 34.54 69.29 45.98 80.73 34.54 86.38 40.2 74.94 51.64 86.38 63.08 80.73 68.73"/></g></g></svg>