<svg xmlns="http://www.w3.org/2000/svg" viewBox="0 0 106 106"><defs><style>.cls-1{fill:#fff;stroke:#000;stroke-miterlimit:10;stroke-width:3px;}</style></defs><title>Asset 5</title><g id="Layer_2" data-name="Layer 2"><g id="Layer_2-2" data-name="Layer 2"><path d="M53,103a50,50,0,1,1,50-50A50.06,50.06,0,0,1,53,103ZM53,4a49,49,0,1,0,49,49A49.06,49.06,0,0,0,53,4Z"/><path d="M53,103.5A50.5,50.5,0,1,1,103.5,53,50.56,50.56,0,0,1,53,103.5Zm0-99A48.5,48.5,0,1,0,101.5,53,48.55,48.55,0,0,0,53,4.5Zm0-1A49.56,49.56,0,0,1,102.5,53a49.5,49.5,0,0,0-99,0A49.56,49.56,0,0,1,53,3.5Z"/><path d="M53,106a53,53,0,1,1,53-53A53.06,53.06,0,0,1,53,106ZM53,7A46,46,0,1,0,99,53,46.05,46.05,0,0,0,53,7Z"/><path class="cls-1" d="M42.59,46.08"/><polygon points="44.97 67.26 39.97 67.26 39.97 34.25 76.39 22.22 75.48 54.2 70.48 54.05 71.19 29.2 44.97 37.86 44.97 67.26"/><polygon points="45.97 70.26 39.97 70.26 39.97 33.98 77.11 21.61 76.56 56.46 70.64 56.38 70.95 29.81 45.97 38.13 45.97 70.26"/><path d="M30.61,81.63a14.6,14.6,0,0,1-4.06-.55c-3.18-.92-5.44-3-6.21-5.62-1.49-5.12,2.94-10.75,10.07-12.82a16.71,16.71,0,0,1,9.16-.2c3.18.92,5.44,3,6.21,5.62s0,5.59-2.23,8.07a16.71,16.71,0,0,1-7.84,4.75A18.38,18.38,0,0,1,30.61,81.63Zm4.91-13.74a12.41,12.41,0,0,0-3.43.51c-4.25,1.24-6.38,4-6,5.38a2.91,2.91,0,0,0,2.12,1.53,10.82,10.82,0,0,0,5.82-.2,10.83,10.83,0,0,0,5-3,2.91,2.91,0,0,0,1-2.43h0a2.91,2.91,0,0,0-2.12-1.53A8.62,8.62,0,0,0,35.51,67.89Z"/><path d="M60.94,67.63a14.6,14.6,0,0,1-4.06-.55c-3.18-.92-5.44-3-6.21-5.62s0-5.59,2.23-8.07a17.72,17.72,0,0,1,17-4.95c3.18.92,5.44,3,6.21,5.62C77.6,59.18,73.18,64.81,66,66.88A18.38,18.38,0,0,1,60.94,67.63Zm4.91-13.74a12.41,12.41,0,0,0-3.43.51,10.83,10.83,0,0,0-5,3,2.91,2.91,0,0,0-1,2.43,2.91,2.91,0,0,0,2.12,1.53,10.83,10.83,0,0,0,5.82-.2c4.25-1.24,6.38-4,6-5.38a2.91,2.91,0,0,0-2.12-1.53A8.62,8.62,0,0,0,65.85,53.89Z"/></g></g></svg>