<svg xmlns="http://www.w3.org/2000/svg" viewBox="0 0 105 105"><defs><style>.cls-1{fill:none;}</style></defs><title>Asset 2</title><g id="Layer_2" data-name="Layer 2"><g id="Layer_2-2" data-name="Layer 2"><path class="cls-1" d="M101.5,52.5a49,49,0,1,0-49,49A49.06,49.06,0,0,0,101.5,52.5ZM28.28,79.81h-3v-25h3Zm13,0h-3v-40h3Zm13,0h-3v-60h3Zm13,0h-3v-30h3Zm12,0h-3v-35h3Z"/><path d="M52.5,2.5a50,50,0,1,0,50,50A50,50,0,0,0,52.5,2.5Zm-49,50a49,49,0,1,1,49,49A49.06,49.06,0,0,1,3.5,52.5Z"/><path d="M52.5,105A52.5,52.5,0,1,1,105,52.5,52.56,52.56,0,0,1,52.5,105Zm0-99A46.5,46.5,0,1,0,99,52.5,46.55,46.55,0,0,0,52.5,6Z"/><rect x="24.28" y="55.81" width="3" height="25"/><rect x="22.28" y="52.81" width="8" height="30"/><rect x="37.28" y="40.81" width="3" height="40"/><rect x="35.28" y="37.81" width="8" height="45"/><rect x="50.28" y="20.81" width="3" height="60"/><rect x="48.28" y="17.81" width="8" height="65"/><rect x="63.28" y="50.81" width="3" height="30"/><rect x="61.28" y="47.81" width="8" height="35"/><rect x="75.28" y="45.81" width="3" height="35"/><rect x="73.28" y="42.81" width="8" height="40"/></g></g></svg>