<svg xmlns="http://www.w3.org/2000/svg" viewBox="0 0 106 106"><title>Asset 6</title><g id="Layer_2" data-name="Layer 2"><g id="Layer_2-2" data-name="Layer 2"><path d="M51.14,72.76c-10.2,0-18.5-7.5-18.5-18.5h-3C29.64,66.26,38,74.33,49,75V89.26h3V75c11-.86,20.67-8.75,20.67-20.75h-3C69.64,65.26,61.34,72.76,51.14,72.76Z"/><path d="M55,91.26H47v-14A23.32,23.32,0,0,1,27,53.76v-2.5h8v2.5c0,9.27,6.73,16,16,16s16-6.73,16-16v-2.5h8v2.5A23.34,23.34,0,0,1,55,77.22Z"/><path d="M51,61.26c5.51,0,10-5.07,10-11.3V31.29C61,25.06,56.49,20,51,20s-10,5.07-10,11.3V50C41,56.19,45.46,61.26,51,61.26Zm-8-30c0-4.73,3.81-8.58,8-8.58s8,3.85,8,8.58V50c0,4.73-3.81,8.58-8,8.58S43,54.7,43,50Z"/><path d="M51.47,63.76C44.58,63.76,39,57.57,39,50V31.29c0-7.61,5.61-13.79,12.5-13.79S64,23.68,64,31.29V50C64,57.57,58.37,63.76,51.47,63.76Zm0-38.55c-2.93,0-5.5,2.84-5.5,6.08V50c0,3.24,2.57,6.08,5.5,6.08S57,53.21,57,50V31.29C57,28,54.4,25.21,51.47,25.21Z"/><path d="M53,103.5A50.5,50.5,0,1,1,103.5,53,50.56,50.56,0,0,1,53,103.5Zm0-99A48.5,48.5,0,1,0,101.5,53,48.55,48.55,0,0,0,53,4.5Zm0-1A49.56,49.56,0,0,1,102.5,53a49.5,49.5,0,0,0-99,0A49.56,49.56,0,0,1,53,3.5Z"/><path d="M53,106a53,53,0,1,1,53-53A53.06,53.06,0,0,1,53,106ZM53,7A46,46,0,1,0,99,53,46.05,46.05,0,0,0,53,7Z"/></g></g></svg>